<svg width="28" height="28" viewBox="0 0 28 28" fill="none" xmlns="http://www.w3.org/2000/svg">
<path d="M14.0001 4.66675C14.6444 4.66675 15.1667 5.18908 15.1667 5.83341V12.8334H22.1667C22.8111 12.8334 23.3334 13.3558 23.3334 14.0001C23.3334 14.6444 22.8111 15.1668 22.1667 15.1668H15.1667V22.1668C15.1667 22.8111 14.6444 23.3334 14.0001 23.3334C13.3557 23.3334 12.8334 22.8111 12.8334 22.1668V15.1668H5.83341C5.18908 15.1668 4.66675 14.6444 4.66675 14.0001C4.66675 13.3558 5.18908 12.8334 5.83341 12.8334H12.8334V5.83341C12.8334 5.18908 13.3557 4.66675 14.0001 4.66675Z" fill="#E7E7E7"/>
</svg>
